<?xml version="1.0" standalone="no"?>
<!DOCTYPE svg PUBLIC "-//W3C//DTD SVG 20010904//EN"
 "http://www.w3.org/TR/2001/REC-SVG-20010904/DTD/svg10.dtd">
<svg version="1.0" xmlns="http://www.w3.org/2000/svg"
 width="503.000000pt" height="503.000000pt" viewBox="0 0 503.000000 503.000000"
 preserveAspectRatio="xMidYMid meet">
<metadata>
Created by potrace 1.11, written by Peter Selinger 2001-2013
</metadata>
<g transform="translate(0.000000,503.000000) scale(0.100000,-0.100000)"
fill="#000000" stroke="none">
<path d="M2330 4874 c-14 -2 -78 -11 -144 -20 -719 -97 -1371 -542 -1729
-1184 -384 -687 -404 -1504 -52 -2211 72 -144 199 -343 277 -430 13 -15 35
-41 50 -59 139 -168 365 -357 583 -486 229 -137 529 -251 755 -289 19 -3 60
-10 90 -15 92 -17 217 -24 395 -23 742 4 1443 371 1886 987 172 239 318 555
375 810 17 73 45 239 50 290 3 34 8 69 10 79 6 20 6 348 -1 392 -2 17 -7 57
-10 90 -4 33 -18 114 -31 180 -161 820 -778 1515 -1577 1776 -239 78 -437 110
-702 114 -110 1 -211 1 -225 -1z"/>
</g>
</svg>
